<?xml version="1.0" encoding="UTF-8"?>
<svg width="24px" height="24px" viewBox="0 0 24 24" version="1.1" xmlns="http://www.w3.org/2000/svg" xmlns:xlink="http://www.w3.org/1999/xlink">
    <title>Supervisors Icon</title>
    <g stroke="none" stroke-width="1" fill="none" fill-rule="evenodd">
        <g transform="translate(2.000000, 1.000000)" fill="#4B5563" fill-rule="nonzero">
            <path d="M10,0 C12.209139,0 14,1.790861 14,4 C14,6.209139 12.209139,8 10,8 C7.790861,8 6,6.209139 6,4 C6,1.790861 7.790861,0 10,0 Z M10,10 C15.523,10 20,12.015 20,14.5 L20,16 C20,18.485 15.523,20.5 10,20.5 C4.477,20.5 0,18.485 0,16 L0,14.5 C0,12.015 4.477,10 10,10 Z M16.8,0 C18.567,0 20,1.433 20,3.2 C20,4.967 18.567,6.4 16.8,6.4 C16.2775,6.4 15.785,6.27 15.352,6.043 C15.902,5.44 16.2775,4.6925 16.4225,3.867 C16.4775,3.6425 16.5,3.4225 16.5,3.2 C16.5,2.9775 16.4775,2.7575 16.4225,2.533 C16.2775,1.7075 15.902,0.96 15.352,0.357 C15.785,0.13 16.2775,0 16.8,0 Z M3.2,0 C3.7225,0 4.215,0.13 4.648,0.357 C4.098,0.96 3.7225,1.7075 3.5775,2.533 C3.5225,2.7575 3.5,2.9775 3.5,3.2 C3.5,3.4225 3.5225,3.6425 3.5775,3.867 C3.7225,4.6925 4.098,5.44 4.648,6.043 C4.215,6.27 3.7225,6.4 3.2,6.4 C1.433,6.4 0,4.967 0,3.2 C0,1.433 1.433,0 3.2,0 Z M17.8,9.5 C18.7941,9.5 19.7253,9.6517 20.5507,9.919 C21.3761,10.1863 22,10.5681 22,11 L22,12.5 C22,12.9319 21.3761,13.3137 20.5507,13.581 C19.7253,13.8483 18.7941,14 17.8,14 C17.4223,14 17.0529,13.9827 16.6953,13.9496 C16.8323,13.4723 16.9,12.9842 16.9,12.5 L16.9,11 C16.9,10.5158 16.8323,10.0277 16.6953,9.5504 C17.0529,9.5173 17.4223,9.5 17.8,9.5 Z M2.2,9.5 C2.5777,9.5 2.9471,9.5173 3.3047,9.5504 C3.1677,10.0277 3.1,10.5158 3.1,11 L3.1,12.5 C3.1,12.9842 3.1677,13.4723 3.3047,13.9496 C2.9471,13.9827 2.5777,14 2.2,14 C1.2059,14 0.2747,13.8483 -0.5507,13.581 C-1.3761,13.3137 -2,12.9319 -2,12.5 L-2,11 C-2,10.5681 -1.3761,10.1863 -0.5507,9.919 C0.2747,9.6517 1.2059,9.5 2.2,9.5 Z"></path>
        </g>
    </g>
</svg>
